# Blender v2.82 (sub 7) OBJ File: '29_02_2020_Vectores_edificio.blend'
# www.blender.org
mtllib 29_02_2020_matera.mtl
o MODELO_3D_SKETCHUP_ENTREGADO_POR_EXPLORA.001
v -1.526740 0.000000 -2.648119
v -2.033242 0.000000 -2.494477
v -2.500037 0.000000 -2.244969
v -2.909186 0.000000 -1.909189
v -3.244967 0.000000 -1.500042
v -3.494474 0.000000 -1.033248
v -3.648120 0.000000 -0.526745
v -3.700000 0.000000 -0.000001
v -3.648121 -0.000000 0.526742
v -3.494476 -0.000000 1.033245
v -3.244969 -0.000000 1.500039
v -2.909190 -0.000000 1.909189
v -2.500041 -0.000000 2.244968
v -2.033247 -0.000000 2.494475
v -1.526745 -0.000000 2.648120
v -1.000001 -0.000000 2.700001
v -0.473257 -0.000000 2.648122
v 0.033244 -0.000000 2.494476
v 0.500039 -0.000000 2.244969
v 0.909188 -0.000000 1.909189
v 1.244968 -0.000000 1.500039
v 1.494475 -0.000000 1.033245
v 1.648120 -0.000000 0.526745
v 1.700000 -0.000000 0.000001
v 1.648120 0.000000 -0.526743
v 1.494474 0.000000 -1.033245
v 1.244968 0.000000 -1.500039
v 0.909188 0.000000 -1.909187
v 0.500039 0.000000 -2.244967
v 0.033245 0.000000 -2.494474
v -0.473256 0.000000 -2.648119
v -1.000000 0.000000 -2.699999
v -0.519567 -0.000001 8.396477
v 5.752131 -0.000001 8.396477
v -0.519567 -0.000000 4.172679
v 5.752131 0.000000 0.546478
v 3.575137 0.000000 0.546478
v 3.503535 0.000000 0.958778
v 3.338740 0.000000 1.506679
v 2.995433 0.000000 2.206379
v 2.275538 0.000000 3.081280
v 1.430140 -0.000000 3.682777
v 0.966838 -0.000000 3.895576
v 0.244334 -0.000000 4.101379
v -0.519567 0.000001 -8.301121
v 5.752131 0.000001 -8.301121
v -0.519567 0.000000 -4.077321
v 0.332133 0.000000 -3.988422
v 1.233332 0.000000 -3.686321
v 1.779338 0.000000 -3.377319
v 2.228633 -0.000000 -3.028419
v 2.612437 -0.000000 -2.636723
v 2.960635 -0.000000 -2.166721
v 3.189036 -0.000000 -1.758320
v 3.396937 -0.000000 -1.246922
v 3.545336 -0.000000 -0.653523
v 5.752131 -0.000000 -0.653523
v -2.809405 -0.000000 1.809405
v -2.421642 -0.000000 2.127634
v -1.979244 -0.000000 2.364100
v -1.499215 -0.000000 2.509716
v -1.000001 -0.000000 2.558885
v -0.500787 -0.000000 2.509717
v -0.020758 -0.000000 2.364102
v 0.421639 -0.000000 2.127635
v 0.809404 -0.000000 1.809405
v 1.127634 -0.000000 1.421639
v 1.364100 -0.000000 0.979242
v 1.509715 -0.000000 0.499214
v 1.558884 -0.000000 0.000001
v 1.509715 0.000000 -0.499212
v 1.364100 0.000000 -0.979242
v 1.127634 0.000000 -1.421639
v 0.809404 0.000000 -1.809402
v 0.421639 0.000000 -2.127633
v -0.020758 0.000000 -2.364100
v -0.500787 0.000000 -2.509715
v -1.000000 0.000000 -2.558883
v 5.611694 -0.000001 8.256040
v -0.379130 -0.000001 8.256040
v -0.379130 -0.000000 4.300619
v 0.270316 -0.000000 4.240001
v 5.611694 0.000000 0.686915
v 3.693287 0.000000 0.686915
v 3.640455 0.000000 0.991135
v 3.469902 0.000000 1.558180
v 3.114291 0.000000 2.282954
v 2.372140 0.000000 3.184903
v 1.500778 -0.000000 3.804875
v 1.015668 -0.000000 4.027690
v -0.379130 0.000001 -8.160684
v 5.611694 0.000001 -8.160684
v -0.379130 0.000000 -4.203862
v 0.362100 0.000000 -4.126494
v 1.290760 0.000000 -3.815188
v 1.857401 0.000000 -3.494508
v 2.322283 -0.000000 -3.133504
v 2.719519 -0.000000 -2.728098
v 3.078823 -0.000000 -2.243106
v 3.315855 -0.000000 -1.819272
v 3.530771 -0.000000 -1.290619
v 3.654977 -0.000000 -0.793959
v 5.611694 -0.000000 -0.793959
v -3.127635 -0.000000 1.421639
v -3.364101 -0.000000 0.979242
v -3.509716 -0.000000 0.499212
v -3.558884 0.000000 -0.000001
v -3.509715 0.000000 -0.499215
v -3.364099 0.000000 -0.979245
v -3.127633 0.000000 -1.421642
v -2.809402 0.000000 -1.809405
v -2.421637 0.000000 -2.127635
v -1.979239 0.000000 -2.364102
v -1.499210 0.000000 -2.509715
v -2.809405 0.239955 1.809405
v -2.421642 0.239955 2.127634
v -1.979244 0.239955 2.364100
v -1.499215 0.239955 2.509716
v -1.000001 0.239955 2.558885
v -0.500787 0.239955 2.509717
v -0.020758 0.239955 2.364102
v 0.421639 0.239955 2.127635
v 0.809404 0.239955 1.809405
v 1.127634 0.239955 1.421639
v 1.364100 0.239955 0.979242
v 1.509715 0.239955 0.499214
v 1.558884 0.239955 0.000001
v 1.509715 0.239955 -0.499212
v 1.364100 0.239955 -0.979242
v 1.127634 0.239955 -1.421639
v 0.809404 0.239956 -1.809402
v 0.421639 0.239956 -2.127633
v -0.020758 0.239956 -2.364100
v -0.500787 0.239956 -2.509715
v -1.000000 0.239956 -2.558883
v 5.611694 0.239954 8.256040
v -0.379130 0.239954 8.256040
v -0.379130 0.239955 4.300619
v 0.270316 0.239955 4.240001
v 5.611694 0.239956 0.686915
v 3.693287 0.239956 0.686915
v 3.640455 0.239956 0.991135
v 3.469902 0.239956 1.558180
v 3.114291 0.239955 2.282954
v 2.372140 0.239955 3.184903
v 1.500778 0.239955 3.804875
v 1.015668 0.239955 4.027690
v -0.379130 0.239956 -8.160684
v 5.611694 0.239956 -8.160684
v -0.379130 0.239955 -4.203862
v 0.362100 0.239955 -4.126494
v 1.290760 0.239955 -3.815188
v 1.857401 0.239955 -3.494508
v 2.322283 0.239955 -3.133504
v 2.719519 0.239955 -2.728098
v 3.078823 0.239955 -2.243106
v 3.315855 0.239955 -1.819272
v 3.530771 0.239955 -1.290619
v 3.654977 0.239955 -0.793959
v 5.611694 0.239955 -0.793959
v -3.127635 0.239955 1.421639
v -3.364101 0.239955 0.979242
v -3.509716 0.239955 0.499212
v -3.558884 0.239955 -0.000001
v -3.509715 0.239955 -0.499215
v -3.364099 0.239955 -0.979245
v -3.127633 0.239955 -1.421642
v -2.809402 0.239956 -1.809405
v -2.421637 0.239956 -2.127635
v -1.979239 0.239956 -2.364102
v -1.499210 0.239956 -2.509715
v -2.909190 0.239955 1.909189
v -2.500041 0.239955 2.244968
v -2.033247 0.239955 2.494475
v -1.526745 0.239955 2.648120
v -1.000001 0.239955 2.700001
v -0.473257 0.239955 2.648122
v 0.033244 0.239955 2.494476
v 0.500039 0.239955 2.244969
v 0.909188 0.239955 1.909189
v 1.244968 0.239955 1.500039
v 1.494475 0.239955 1.033245
v 1.648120 0.239955 0.526745
v 1.700000 0.239955 0.000001
v 1.648120 0.239955 -0.526743
v 1.494474 0.239955 -1.033245
v 1.244968 0.239955 -1.500039
v 0.909188 0.239956 -1.909187
v 0.500039 0.239956 -2.244967
v 0.033245 0.239956 -2.494474
v -0.473256 0.239956 -2.648119
v -1.000000 0.239956 -2.699999
v 5.752131 0.239954 8.396477
v -0.519567 0.239954 8.396477
v -0.519567 0.239955 4.172679
v 0.244334 0.239955 4.101379
v 5.752131 0.239956 0.546478
v 3.575137 0.239956 0.546478
v 3.503535 0.239956 0.958778
v 3.338740 0.239956 1.506679
v 2.995433 0.239955 2.206379
v 2.275538 0.239955 3.081280
v 1.430140 0.239955 3.682777
v 0.966838 0.239955 3.895576
v -0.519567 0.239956 -8.301121
v 5.752131 0.239956 -8.301121
v -0.519567 0.239955 -4.077321
v 0.332133 0.239955 -3.988422
v 1.233332 0.239955 -3.686321
v 1.779338 0.239955 -3.377319
v 2.228633 0.239955 -3.028419
v 2.612437 0.239955 -2.636723
v 2.960635 0.239955 -2.166721
v 3.189036 0.239955 -1.758320
v 3.396937 0.239955 -1.246922
v 3.545336 0.239955 -0.653523
v 5.752131 0.239955 -0.653523
v -3.244969 0.239955 1.500039
v -3.494476 0.239955 1.033245
v -3.648121 0.239955 0.526742
v -3.700000 0.239955 -0.000001
v -3.648120 0.239955 -0.526745
v -3.494474 0.239955 -1.033248
v -3.244967 0.239955 -1.500042
v -2.909186 0.239956 -1.909189
v -2.500037 0.239956 -2.244969
v -2.033242 0.239956 -2.494477
v -1.526740 0.239956 -2.648119
vt 0.294375 0.473086
vt 0.250000 0.477456
vt 0.205626 0.473086
vt 0.162957 0.460143
vt 0.123632 0.439123
vt 0.089164 0.410836
vt 0.060877 0.376368
vt 0.039858 0.337044
vt 0.026914 0.294375
vt 0.022544 0.250000
vt 0.026914 0.205626
vt 0.039858 0.162956
vt 0.060877 0.123632
vt 0.089164 0.089164
vt 0.123632 0.060877
vt 0.162956 0.039858
vt 0.205625 0.026914
vt 0.250000 0.022544
vt 0.294375 0.026914
vt 0.337044 0.039858
vt 0.376368 0.060877
vt 0.410836 0.089164
vt 0.439123 0.123632
vt 0.460142 0.162956
vt 0.473086 0.205626
vt 0.477456 0.250000
vt 0.473086 0.294375
vt 0.460142 0.337044
vt 0.439123 0.376368
vt 0.410836 0.410836
vt 0.376368 0.439123
vt 0.337044 0.460142
vt 0.123632 0.060877
vt 0.162956 0.039858
vt 0.089164 0.410836
vt 0.060877 0.376368
vt 0.000000 0.000000
vt 0.000000 0.000000
vt 0.000000 0.000000
vt 0.000000 0.000000
vt 0.089164 0.089164
vt 0.039858 0.337044
vt 0.000000 0.000000
vt 0.000000 0.000000
vt 0.026914 0.294375
vt 0.000000 0.000000
vt 0.000000 0.000000
vt 0.000000 0.000000
vt 0.000000 0.000000
vt 0.022544 0.250000
vt 0.000000 0.000000
vt 0.000000 0.000000
vt 0.026914 0.205626
vt 0.000000 0.000000
vt 0.000000 0.000000
vt 0.039858 0.162956
vt 0.000000 0.000000
vt 0.000000 0.000000
vt 0.060877 0.123632
vt 0.000000 0.000000
vt 0.000000 0.000000
vt 0.000000 0.000000
vt 0.000000 0.000000
vt 0.000000 0.000000
vt 0.000000 0.000000
vt 0.000000 0.000000
vt 0.000000 0.000000
vt 0.000000 0.000000
vt 0.000000 0.000000
vt 0.000000 0.000000
vt 0.000000 0.000000
vt 0.000000 0.000000
vt 0.000000 0.000000
vt 0.000000 0.000000
vt 0.000000 0.000000
vt 0.000000 0.000000
vt 0.000000 0.000000
vt 0.000000 0.000000
vt 0.000000 0.000000
vt 0.000000 0.000000
vt 0.000000 0.000000
vt 0.000000 0.000000
vt 0.000000 0.000000
vt 0.000000 0.000000
vt 0.000000 0.000000
vt 0.000000 0.000000
vt 0.000000 0.000000
vt 0.000000 0.000000
vt 0.000000 0.000000
vt 0.000000 0.000000
vt 0.000000 0.000000
vt 0.000000 0.000000
vt 0.000000 0.000000
vt 0.000000 0.000000
vt 0.000000 0.000000
vt 0.000000 0.000000
vt 0.000000 0.000000
vt 0.000000 0.000000
vt 0.000000 0.000000
vt 0.080294 0.080294
vt 0.116663 0.050447
vt 0.158156 0.028269
vt 0.205625 0.026914
vt 0.203178 0.014612
vt 0.250000 0.022544
vt 0.250000 0.010000
vt 0.294375 0.026914
vt 0.296822 0.014612
vt 0.337044 0.039858
vt 0.341844 0.028269
vt 0.376368 0.060877
vt 0.383337 0.050447
vt 0.410836 0.089164
vt 0.419706 0.080294
vt 0.439123 0.123632
vt 0.449553 0.116663
vt 0.460142 0.162956
vt 0.471731 0.158156
vt 0.473086 0.205626
vt 0.485388 0.203178
vt 0.477456 0.250000
vt 0.490000 0.250000
vt 0.473086 0.294375
vt 0.485388 0.296822
vt 0.460142 0.337044
vt 0.471731 0.341844
vt 0.439123 0.376368
vt 0.449553 0.383337
vt 0.410836 0.410836
vt 0.419706 0.419706
vt 0.376368 0.439123
vt 0.383337 0.449553
vt 0.337044 0.460142
vt 0.341844 0.471731
vt 0.294375 0.473086
vt 0.296822 0.485388
vt 0.250000 0.477456
vt 0.250000 0.490000
vt 0.050447 0.116663
vt 0.028269 0.158156
vt 0.014611 0.203179
vt 0.010000 0.250000
vt 0.014612 0.296822
vt 0.028269 0.341844
vt 0.050447 0.383337
vt 0.080295 0.419706
vt 0.123632 0.439123
vt 0.116663 0.449553
vt 0.162957 0.460143
vt 0.158156 0.471731
vt 0.205626 0.473086
vt 0.203179 0.485388
vt 0.000000 0.000000
vt 0.000000 0.000000
vt 0.000000 0.000000
vt 0.000000 0.000000
vt 0.000000 0.000000
vt 0.000000 0.000000
vt 0.000000 0.000000
vt 0.000000 0.000000
vt 0.000000 0.000000
vt 0.000000 0.000000
vt 0.000000 0.000000
vt 0.000000 0.000000
vt 0.000000 0.000000
vt 0.000000 0.000000
vt 0.000000 0.000000
vt 0.000000 0.000000
vt 0.000000 0.000000
vt 0.000000 0.000000
vt 0.000000 0.000000
vt 0.000000 0.000000
vt 0.000000 0.000000
vt 0.000000 0.000000
vt 0.000000 0.000000
vt 0.000000 0.000000
vt 0.000000 0.000000
vt 0.000000 0.000000
vt 0.000000 0.000000
vt 0.000000 0.000000
vt 0.000000 0.000000
vt 0.000000 0.000000
vt 0.000000 0.000000
vt 0.000000 0.000000
vt 0.000000 0.000000
vt 0.000000 0.000000
vt 0.000000 0.000000
vt 0.000000 0.000000
vt 0.000000 0.000000
vt 0.000000 0.000000
vt 0.000000 0.000000
vt 0.000000 0.000000
vt 0.000000 0.000000
vt 0.000000 0.000000
vt 0.000000 0.000000
vt 0.000000 0.000000
vt 0.000000 0.000000
vt 0.000000 0.000000
vt 0.000000 0.000000
vt 0.000000 0.000000
vt 0.000000 0.000000
vt 0.000000 0.000000
vt 0.000000 0.000000
vt 0.000000 0.000000
vt 0.000000 0.000000
vt 0.000000 0.000000
vt 0.000000 0.000000
vt 0.000000 0.000000
vt 0.000000 0.000000
vt 0.000000 0.000000
vt 1187.139771 1408.473389
vt 1187.139038 1252.748779
vt 1423.001099 1252.749146
vt 1423.000977 1550.750854
vt 1347.471436 1550.751587
vt 1345.391602 1538.774780
vt 1338.682373 1516.444336
vt 1324.679688 1487.914429
vt 1295.462280 1452.400635
vt 1261.151367 1427.992676
vt 1242.052979 1419.219238
vt 1212.711670 1410.861816
vt 1187.138916 1899.081299
vt 1187.140015 1743.301880
vt 1216.328735 1740.255615
vt 1252.890015 1727.994629
vt 1275.193970 1715.372681
vt 1293.496826 1701.158081
vt 1309.135864 1685.197632
vt 1323.282593 1666.106323
vt 1332.613525 1649.418945
vt 1341.078003 1628.601685
vt 1345.966919 1609.048828
vt 1423.000977 1609.049072
vt 1423.000977 1899.080811
vt 1423.000977 1609.049072
vt 1423.000977 1899.080811
vt 1345.966919 1609.048828
vt 1341.078003 1628.601685
vt 1332.613525 1649.418945
vt 1323.282593 1666.106323
vt 1309.135864 1685.197632
vt 1293.496826 1701.158081
vt 1275.193970 1715.372681
vt 1252.890015 1727.994629
vt 1216.328735 1740.255615
vt 1187.140015 1743.301880
vt 1187.138916 1899.081299
vt 1242.052979 1419.219238
vt 1212.711670 1410.861816
vt 1261.151367 1427.992676
vt 1295.462280 1452.400635
vt 1324.679688 1487.914429
vt 1338.682373 1516.444336
vt 1345.391602 1538.774780
vt 1347.471436 1550.751587
vt 1423.001099 1252.749146
vt 1187.139038 1252.748779
vt 1181.609985 1247.219971
vt 1428.530029 1247.219971
vt 1187.139771 1408.473389
vt 1211.689941 1416.319946
vt 1181.609985 1413.510010
vt 1423.000977 1550.750854
vt 1428.530029 1556.280029
vt 1342.819946 1556.280029
vt 1340.000000 1540.050049
vt 1333.520020 1518.469971
vt 1320.000000 1490.930054
vt 1291.660034 1456.479980
vt 1258.369995 1432.800049
vt 1240.130005 1424.420044
vt 1428.530029 1904.609985
vt 1181.609985 1904.609985
vt 1181.609985 1738.319946
vt 1215.150024 1734.819946
vt 1250.630005 1722.920044
vt 1272.119995 1710.760010
vt 1289.810059 1697.020020
vt 1304.920044 1681.599976
vt 1318.630005 1663.099976
vt 1327.619995 1647.020020
vt 1335.810059 1626.880005
vt 1341.650024 1603.520020
vt 1428.530029 1603.520020
vn -0.0000 1.0000 0.0000
vn 0.4714 0.0000 -0.8819
vn 0.7730 0.0000 0.6344
vn -0.8819 0.0000 0.4714
vn 0.6344 0.0000 -0.7730
vn 0.8819 0.0000 0.4714
vn -0.7730 0.0000 0.6344
vn 0.9569 0.0000 0.2903
vn 1.0000 0.0000 0.0000
vn 0.9952 0.0000 0.0980
vn 0.0000 -0.0000 1.0000
vn 0.9952 -0.0000 -0.0980
vn -0.9701 -0.0000 0.2426
vn 0.9569 0.0000 -0.2903
vn -0.9264 0.0000 0.3766
vn 0.8819 0.0000 -0.4714
vn -0.8728 0.0000 0.4881
vn 0.7730 0.0000 -0.6344
vn -0.8035 0.0000 0.5953
vn -0.7143 0.0000 0.6999
vn -0.6133 0.0000 0.7898
vn -0.4925 0.0000 0.8703
vn -0.3178 0.0000 0.9481
vn -0.1038 0.0000 0.9946
vn -1.0000 0.0000 0.0000
vn 0.0000 0.0000 -1.0000
vn -0.2739 0.0000 -0.9617
vn -0.4174 0.0000 -0.9087
vn -0.5797 0.0000 -0.8148
vn -0.7722 0.0000 -0.6354
vn -0.8978 0.0000 -0.4405
vn -0.9576 0.0000 -0.2880
vn -0.9853 0.0000 -0.1711
vn -0.0929 0.0000 -0.9957
vn -0.9569 -0.0000 0.2903
vn 0.6344 0.0000 0.7730
vn 0.2903 0.0000 -0.9569
vn -0.9952 0.0000 0.0980
vn 0.4714 0.0000 0.8819
vn 0.0980 0.0000 -0.9952
vn -0.9952 -0.0000 -0.0980
vn 0.2903 0.0000 0.9569
vn -0.0980 0.0000 -0.9952
vn -0.9569 0.0000 -0.2903
vn 0.0980 0.0000 0.9952
vn -0.2903 0.0000 -0.9569
vn -0.8819 0.0000 -0.4714
vn -0.6344 0.0000 0.7730
vn -0.4714 0.0000 -0.8819
vn -0.7730 0.0000 -0.6344
vn -0.4714 0.0000 0.8819
vn -0.6344 0.0000 -0.7730
vn -0.2903 0.0000 0.9569
vn -0.0980 0.0000 0.9952
vn 0.6009 0.5824 0.5474
vn 0.5774 0.5774 -0.5774
vn -0.5774 0.5774 -0.5774
vn -0.5774 0.5774 0.5774
vn 0.5212 0.5869 0.6195
vn 0.7008 0.6938 0.1656
vn 0.6745 0.6891 0.2648
vn 0.6149 0.6819 0.3961
vn 0.5008 0.6787 0.5372
vn 0.3641 0.6866 0.6293
vn 0.2508 0.6903 0.6787
vn 0.1339 0.6870 0.7143
vn 0.5774 0.5774 0.5774
vn 0.6036 0.5830 -0.5439
vn 0.1549 0.6833 -0.7136
vn 0.2961 0.6862 -0.6644
vn 0.4007 0.6911 -0.6015
vn 0.4802 0.6922 -0.5388
vn 0.5492 0.6920 -0.4686
vn 0.6055 0.6930 -0.3913
vn 0.6494 0.6934 -0.3121
vn 0.6866 0.6916 -0.2242
vn 0.4963 0.5913 -0.6356
vn -0.3015 0.9045 -0.3015
vn -0.3015 0.9045 0.3015
vn 0.2983 0.8746 -0.3821
vn 0.3357 0.8921 -0.3024
vn 0.3015 0.9045 0.3015
vn 0.3012 0.8838 0.3581
vn 0.3015 0.9045 -0.3015
vn 0.3320 0.8934 0.3025
usemtl FrontColor
s off
f 77/1/1 78/2/1 114/3/1 113/4/1 112/5/1 111/6/1 110/7/1 109/8/1 108/9/1 107/10/1 106/11/1 105/12/1 104/13/1 58/14/1 59/15/1 60/16/1 61/17/1 62/18/1 63/19/1 64/20/1 65/21/1 66/22/1 67/23/1 68/24/1 69/25/1 70/26/1 71/27/1 72/28/1 73/29/1 74/30/1 75/31/1 76/32/1
f 60/16/2 59/15/2 116/33/2 117/34/2
f 110/7/3 111/6/3 168/35/3 167/36/3
f 10/37/4 11/38/4 218/39/4 219/40/4
f 59/15/5 58/14/5 115/41/5 116/33/5
f 109/8/6 110/7/6 167/36/6 166/42/6
f 11/38/7 12/43/7 172/44/7 218/39/7
f 108/9/8 109/8/8 166/42/8 165/45/8
f 57/46/9 46/47/9 206/48/9 217/49/9
f 107/10/10 108/9/10 165/45/10 164/50/10
f 56/51/11 57/46/11 217/49/11 216/52/11
f 106/11/12 107/10/12 164/50/12 163/53/12
f 55/54/13 56/51/13 216/52/13 215/55/13
f 105/12/14 106/11/14 163/53/14 162/56/14
f 54/57/15 55/54/15 215/55/15 214/58/15
f 104/13/16 105/12/16 162/56/16 161/59/16
f 53/60/17 54/57/17 214/58/17 213/61/17
f 58/14/18 104/13/18 161/59/18 115/41/18
f 52/62/19 53/60/19 213/61/19 212/63/19
f 51/64/20 52/62/20 212/63/20 211/65/20
f 50/66/21 51/64/21 211/65/21 210/67/21
f 49/68/22 50/66/22 210/67/22 209/69/22
f 48/70/23 49/68/23 209/69/23 208/71/23
f 47/72/24 48/70/24 208/71/24 207/73/24
f 45/74/25 47/72/25 207/73/25 205/75/25
f 46/47/26 45/74/26 205/75/26 206/48/26
f 43/76/27 44/77/27 196/78/27 204/79/27
f 42/80/28 43/76/28 204/79/28 203/81/28
f 41/82/29 42/80/29 203/81/29 202/83/29
f 40/84/30 41/82/30 202/83/30 201/85/30
f 39/86/31 40/84/31 201/85/31 200/87/31
f 38/88/32 39/86/32 200/87/32 199/89/32
f 37/90/33 38/88/33 199/89/33 198/91/33
f 36/92/26 37/90/26 198/91/26 197/93/26
f 34/94/9 36/92/9 197/93/9 193/95/9
f 35/96/25 33/97/25 194/98/25 195/99/25
f 44/77/34 35/96/34 195/99/34 196/78/34
f 33/97/11 34/94/11 193/95/11 194/98/11
f 116/33/1 115/41/1 172/100/1 173/101/1
f 117/34/1 116/33/1 173/101/1 174/102/1
f 118/103/1 117/34/1 174/102/1 175/104/1
f 119/105/1 118/103/1 175/104/1 176/106/1
f 120/107/1 119/105/1 176/106/1 177/108/1
f 121/109/1 120/107/1 177/108/1 178/110/1
f 122/111/1 121/109/1 178/110/1 179/112/1
f 123/113/1 122/111/1 179/112/1 180/114/1
f 124/115/1 123/113/1 180/114/1 181/116/1
f 125/117/1 124/115/1 181/116/1 182/118/1
f 126/119/1 125/117/1 182/118/1 183/120/1
f 127/121/1 126/119/1 183/120/1 184/122/1
f 128/123/1 127/121/1 184/122/1 185/124/1
f 129/125/1 128/123/1 185/124/1 186/126/1
f 130/127/1 129/125/1 186/126/1 187/128/1
f 131/129/1 130/127/1 187/128/1 188/130/1
f 132/131/1 131/129/1 188/130/1 189/132/1
f 133/133/1 132/131/1 189/132/1 190/134/1
f 134/135/1 133/133/1 190/134/1 191/136/1
f 135/137/1 134/135/1 191/136/1 192/138/1
f 115/41/1 161/59/1 218/139/1 172/100/1
f 161/59/1 162/56/1 219/140/1 218/139/1
f 162/56/1 163/53/1 220/141/1 219/140/1
f 163/53/1 164/50/1 221/142/1 220/141/1
f 164/50/1 165/45/1 222/143/1 221/142/1
f 165/45/1 166/42/1 223/144/1 222/143/1
f 166/42/1 167/36/1 224/145/1 223/144/1
f 167/36/1 168/35/1 225/146/1 224/145/1
f 168/35/1 169/147/1 226/148/1 225/146/1
f 169/147/1 170/149/1 227/150/1 226/148/1
f 170/149/1 171/151/1 228/152/1 227/150/1
f 171/151/1 135/137/1 192/138/1 228/152/1
f 9/153/35 10/37/35 219/40/35 220/154/35
f 111/6/36 112/5/36 169/147/36 168/35/36
f 61/17/37 60/16/37 117/34/37 118/103/37
f 8/155/38 9/153/38 220/154/38 221/156/38
f 112/5/39 113/4/39 170/149/39 169/147/39
f 62/18/40 61/17/40 118/103/40 119/105/40
f 7/157/41 8/155/41 221/156/41 222/158/41
f 113/4/42 114/3/42 171/151/42 170/149/42
f 63/19/43 62/18/43 119/105/43 120/107/43
f 6/159/44 7/157/44 222/158/44 223/160/44
f 114/3/45 78/2/45 135/137/45 171/151/45
f 64/20/46 63/19/46 120/107/46 121/109/46
f 5/161/47 6/159/47 223/160/47 224/162/47
f 12/43/48 13/163/48 173/164/48 172/44/48
f 65/21/49 64/20/49 121/109/49 122/111/49
f 4/165/50 5/161/50 224/162/50 225/166/50
f 13/163/51 14/167/51 174/168/51 173/164/51
f 66/22/52 65/21/52 122/111/52 123/113/52
f 3/169/52 4/165/52 225/166/52 226/170/52
f 14/167/53 15/171/53 175/172/53 174/168/53
f 67/23/50 66/22/50 123/113/50 124/115/50
f 2/173/49 3/169/49 226/170/49 227/174/49
f 15/171/54 16/175/54 176/176/54 175/172/54
f 68/24/47 67/23/47 124/115/47 125/117/47
f 1/177/46 2/173/46 227/174/46 228/178/46
f 16/175/45 17/179/45 177/180/45 176/176/45
f 69/25/44 68/24/44 125/117/44 126/119/44
f 32/181/43 1/177/43 228/178/43 192/182/43
f 17/179/42 18/183/42 178/184/42 177/180/42
f 70/26/41 69/25/41 126/119/41 127/121/41
f 18/183/39 19/185/39 179/186/39 178/184/39
f 71/27/38 70/26/38 127/121/38 128/123/38
f 19/185/36 20/187/36 180/188/36 179/186/36
f 72/28/35 71/27/35 128/123/35 129/125/35
f 20/187/3 21/189/3 181/190/3 180/188/3
f 73/29/4 72/28/4 129/125/4 130/127/4
f 21/189/6 22/191/6 182/192/6 181/190/6
f 74/30/7 73/29/7 130/127/7 131/129/7
f 22/191/8 23/193/8 183/194/8 182/192/8
f 75/31/48 74/30/48 131/129/48 132/131/48
f 23/193/10 24/195/10 184/196/10 183/194/10
f 76/32/51 75/31/51 132/131/51 133/133/51
f 24/195/12 25/197/12 185/198/12 184/196/12
f 77/1/53 76/32/53 133/133/53 134/135/53
f 25/197/14 26/199/14 186/200/14 185/198/14
f 78/2/54 77/1/54 134/135/54 135/137/54
f 26/199/16 27/201/16 187/202/16 186/200/16
f 27/201/18 28/203/18 188/204/18 187/202/18
f 28/203/5 29/205/5 189/206/5 188/204/5
f 29/205/2 30/207/2 190/208/2 189/206/2
f 30/207/37 31/209/37 191/210/37 190/208/37
f 31/209/40 32/181/40 192/182/40 191/210/40
usemtl Color_M00
s 1
f 81/211/55 80/212/56 79/213/57 83/214/58 84/215/59 85/216/60 86/217/61 87/218/62 88/219/63 89/220/64 90/221/65 82/222/66
f 91/223/67 93/224/68 94/225/69 95/226/70 96/227/71 97/228/72 98/229/73 99/230/74 100/231/75 101/232/76 102/233/77 103/234/57 92/235/58
f 92/235/58 103/234/57 160/236/78 149/237/79
f 103/234/57 102/233/77 159/238/80 160/236/78
f 102/233/77 101/232/76 158/239/76 159/238/80
f 101/232/76 100/231/75 157/240/75 158/239/76
f 100/231/75 99/230/74 156/241/74 157/240/75
f 99/230/74 98/229/73 155/242/73 156/241/74
f 98/229/73 97/228/72 154/243/72 155/242/73
f 97/228/72 96/227/71 153/244/71 154/243/72
f 96/227/71 95/226/70 152/245/70 153/244/71
f 95/226/70 94/225/69 151/246/69 152/245/70
f 94/225/69 93/224/68 150/247/81 151/246/69
f 93/224/68 91/223/67 148/248/82 150/247/81
f 91/223/67 92/235/58 149/237/79 148/248/82
f 82/222/66 90/221/65 147/249/65 139/250/66
f 90/221/65 89/220/64 146/251/64 147/249/65
f 89/220/64 88/219/63 145/252/63 146/251/64
f 88/219/63 87/218/62 144/253/62 145/252/63
f 87/218/62 86/217/61 143/254/61 144/253/62
f 86/217/61 85/216/60 142/255/60 143/254/61
f 85/216/60 84/215/59 141/256/83 142/255/60
f 136/257/78 137/258/84 194/259/1 193/260/1
f 138/261/85 139/250/66 196/262/1 195/263/1
f 137/258/84 138/261/85 195/263/1 194/259/1
f 140/264/79 136/257/78 193/260/1 197/265/1
f 141/256/83 140/264/79 197/265/1 198/266/1
f 142/255/60 141/256/83 198/266/1 199/267/1
f 143/254/61 142/255/60 199/267/1 200/268/1
f 144/253/62 143/254/61 200/268/1 201/269/1
f 145/252/63 144/253/62 201/269/1 202/270/1
f 146/251/64 145/252/63 202/270/1 203/271/1
f 147/249/65 146/251/64 203/271/1 204/272/1
f 139/250/66 147/249/65 204/272/1 196/262/1
f 148/248/82 149/237/79 206/273/1 205/274/1
f 150/247/81 148/248/82 205/274/1 207/275/1
f 151/246/69 150/247/81 207/275/1 208/276/1
f 152/245/70 151/246/69 208/276/1 209/277/1
f 153/244/71 152/245/70 209/277/1 210/278/1
f 154/243/72 153/244/71 210/278/1 211/279/1
f 155/242/73 154/243/72 211/279/1 212/280/1
f 156/241/74 155/242/73 212/280/1 213/281/1
f 157/240/75 156/241/74 213/281/1 214/282/1
f 158/239/76 157/240/75 214/282/1 215/283/1
f 159/238/80 158/239/76 215/283/1 216/284/1
f 160/236/78 159/238/80 216/284/1 217/285/1
f 149/237/79 160/236/78 217/285/1 206/273/1
f 79/213/57 80/212/56 137/258/84 136/257/78
f 81/211/55 82/222/66 139/250/66 138/261/85
f 80/212/56 81/211/55 138/261/85 137/258/84
f 83/214/58 79/213/57 136/257/78 140/264/79
f 84/215/59 83/214/58 140/264/79 141/256/83
